<svg xmlns="http://www.w3.org/2000/svg" version="1.1" xmlns:xlink="http://www.w3.org/1999/xlink" xmlns:svgjs="http://svgjs.dev/svgjs" width="1080" height="768" preserveAspectRatio="none" viewBox="0 0 1080 768">
    <g mask="url(&quot;#SvgjsMask1372&quot;)" fill="none">
        <g mask="url(&quot;#SvgjsMask1373&quot;)">
            <path d="M1012.5 412.5L987.5 412.5L962.5 412.5L937.5 412.5L912.5 412.5M1062.5 412.5L1037.5 387.5L1012.5 387.5L987.5 362.5L962.5 362.5M1112.5 387.5L1087.5 387.5L1062.5 412.5L1037.5 412.5L1012.5 412.5L987.5 387.5L962.5 387.5" stroke="rgba(255, 0, 0, 1)" stroke-width="4.17"></path>
            <path d="M956.25 387.5 a6.25 6.25 0 1 0 12.5 0 a6.25 6.25 0 1 0 -12.5 0zM906.25 412.5 a6.25 6.25 0 1 0 12.5 0 a6.25 6.25 0 1 0 -12.5 0zM956.25 362.5 a6.25 6.25 0 1 0 12.5 0 a6.25 6.25 0 1 0 -12.5 0z" fill="rgba(255, 0, 0, 1)"></path>
            <path d="M1112.5 362.5L1087.5 362.5L1062.5 362.5" stroke="rgba(255, 0, 0, 1)" stroke-width="4.17"></path>
            <path d="M1056.25 362.5 a6.25 6.25 0 1 0 12.5 0 a6.25 6.25 0 1 0 -12.5 0z" fill="rgba(255, 0, 0, 1)"></path>
            <path d="M887.5 437.5L862.5 412.5L837.5 412.5L812.5 412.5M837.5 437.5L812.5 462.5M862.5 437.5L837.5 462.5L812.5 487.5L787.5 487.5L762.5 487.5M1112.5 412.5L1087.5 412.5L1062.5 437.5L1037.5 437.5L1012.5 437.5L987.5 437.5L962.5 437.5L937.5 437.5L912.5 437.5L887.5 437.5L862.5 437.5L837.5 437.5L812.5 437.5" stroke="rgba(255, 0, 0, 1)" stroke-width="4.17"></path>
            <path d="M806.25 437.5 a6.25 6.25 0 1 0 12.5 0 a6.25 6.25 0 1 0 -12.5 0zM806.25 412.5 a6.25 6.25 0 1 0 12.5 0 a6.25 6.25 0 1 0 -12.5 0zM806.25 462.5 a6.25 6.25 0 1 0 12.5 0 a6.25 6.25 0 1 0 -12.5 0zM756.25 487.5 a6.25 6.25 0 1 0 12.5 0 a6.25 6.25 0 1 0 -12.5 0z" fill="rgba(255, 0, 0, 1)"></path>
            <path d="M1012.5 337.5L987.5 312.5M937.5 337.5L912.5 362.5L887.5 362.5L862.5 362.5L837.5 362.5M1112.5 337.5L1087.5 337.5L1062.5 337.5L1037.5 337.5L1012.5 337.5L987.5 337.5L962.5 337.5L937.5 337.5L912.5 337.5L887.5 337.5" stroke="rgba(255, 0, 0, 1)" stroke-width="4.17"></path>
            <path d="M881.25 337.5 a6.25 6.25 0 1 0 12.5 0 a6.25 6.25 0 1 0 -12.5 0zM981.25 312.5 a6.25 6.25 0 1 0 12.5 0 a6.25 6.25 0 1 0 -12.5 0zM831.25 362.5 a6.25 6.25 0 1 0 12.5 0 a6.25 6.25 0 1 0 -12.5 0z" fill="rgba(255, 0, 0, 1)"></path>
            <path d="M987.5 462.5L962.5 487.5L937.5 487.5L912.5 487.5L887.5 487.5M1112.5 437.5L1087.5 437.5L1062.5 462.5L1037.5 462.5L1012.5 462.5L987.5 462.5L962.5 462.5L937.5 462.5L912.5 462.5" stroke="rgba(255, 0, 0, 1)" stroke-width="4.17"></path>
            <path d="M906.25 462.5 a6.25 6.25 0 1 0 12.5 0 a6.25 6.25 0 1 0 -12.5 0zM881.25 487.5 a6.25 6.25 0 1 0 12.5 0 a6.25 6.25 0 1 0 -12.5 0z" fill="rgba(255, 0, 0, 1)"></path>
            <path d="M1112.5 312.5L1087.5 312.5L1062.5 312.5L1037.5 312.5" stroke="rgba(255, 217, 29, 1)" stroke-width="4.17"></path>
            <path d="M1031.25 312.5 a6.25 6.25 0 1 0 12.5 0 a6.25 6.25 0 1 0 -12.5 0z" fill="rgba(255, 217, 29, 1)"></path>
            <path d="M1112.5 462.5L1087.5 462.5L1062.5 487.5L1037.5 487.5" stroke="rgba(255, 0, 0, 1)" stroke-width="4.17"></path>
            <path d="M1031.25 487.5 a6.25 6.25 0 1 0 12.5 0 a6.25 6.25 0 1 0 -12.5 0z" fill="rgba(255, 0, 0, 1)"></path>
            <path d="M812.5 312.5L787.5 337.5L762.5 337.5L737.5 337.5L712.5 337.5L687.5 362.5M862.5 312.5L837.5 287.5L812.5 287.5M712.5 312.5L687.5 312.5M912.5 312.5L887.5 287.5M1112.5 287.5L1087.5 287.5L1062.5 287.5L1037.5 287.5L1012.5 287.5L987.5 287.5L962.5 312.5L937.5 312.5L912.5 312.5L887.5 312.5L862.5 312.5L837.5 312.5L812.5 312.5L787.5 312.5L762.5 312.5L737.5 312.5L712.5 312.5L687.5 337.5L662.5 337.5" stroke="rgba(255, 0, 0, 1)" stroke-width="4.17"></path>
            <path d="M656.25 337.5 a6.25 6.25 0 1 0 12.5 0 a6.25 6.25 0 1 0 -12.5 0zM681.25 362.5 a6.25 6.25 0 1 0 12.5 0 a6.25 6.25 0 1 0 -12.5 0zM806.25 287.5 a6.25 6.25 0 1 0 12.5 0 a6.25 6.25 0 1 0 -12.5 0zM681.25 312.5 a6.25 6.25 0 1 0 12.5 0 a6.25 6.25 0 1 0 -12.5 0zM881.25 287.5 a6.25 6.25 0 1 0 12.5 0 a6.25 6.25 0 1 0 -12.5 0z" fill="rgba(255, 0, 0, 1)"></path>
            <path d="M687.5 537.5L662.5 512.5L637.5 512.5M737.5 537.5L712.5 512.5L687.5 512.5L662.5 487.5M762.5 512.5L737.5 512.5L712.5 487.5L687.5 487.5L662.5 462.5L637.5 462.5M1012.5 512.5L987.5 487.5M1112.5 487.5L1087.5 487.5L1062.5 512.5L1037.5 512.5L1012.5 512.5L987.5 512.5L962.5 512.5L937.5 512.5L912.5 512.5L887.5 512.5L862.5 512.5L837.5 512.5L812.5 512.5L787.5 512.5L762.5 512.5L737.5 537.5L712.5 537.5L687.5 537.5L662.5 537.5" stroke="rgba(255, 217, 29, 1)" stroke-width="4.17"></path>
            <path d="M656.25 537.5 a6.25 6.25 0 1 0 12.5 0 a6.25 6.25 0 1 0 -12.5 0zM631.25 512.5 a6.25 6.25 0 1 0 12.5 0 a6.25 6.25 0 1 0 -12.5 0zM656.25 487.5 a6.25 6.25 0 1 0 12.5 0 a6.25 6.25 0 1 0 -12.5 0zM631.25 462.5 a6.25 6.25 0 1 0 12.5 0 a6.25 6.25 0 1 0 -12.5 0zM981.25 487.5 a6.25 6.25 0 1 0 12.5 0 a6.25 6.25 0 1 0 -12.5 0z" fill="rgba(255, 217, 29, 1)"></path>
            <path d="M1112.5 262.5L1087.5 262.5" stroke="rgba(255, 217, 29, 1)" stroke-width="4.17"></path>
            <path d="M1081.25 262.5 a6.25 6.25 0 1 0 12.5 0 a6.25 6.25 0 1 0 -12.5 0z" fill="rgba(255, 217, 29, 1)"></path>
            <path d="M687.5 562.5L662.5 587.5L637.5 587.5L612.5 587.5M1112.5 512.5L1087.5 512.5L1062.5 537.5L1037.5 537.5L1012.5 537.5L987.5 537.5L962.5 537.5L937.5 537.5L912.5 537.5L887.5 537.5L862.5 537.5L837.5 537.5L812.5 537.5L787.5 537.5L762.5 537.5L737.5 562.5L712.5 562.5L687.5 562.5L662.5 562.5" stroke="rgba(255, 0, 0, 1)" stroke-width="4.17"></path>
            <path d="M656.25 562.5 a6.25 6.25 0 1 0 12.5 0 a6.25 6.25 0 1 0 -12.5 0zM606.25 587.5 a6.25 6.25 0 1 0 12.5 0 a6.25 6.25 0 1 0 -12.5 0z" fill="rgba(255, 0, 0, 1)"></path>
            <path d="M1037.5 237.5L1012.5 212.5L987.5 187.5L962.5 187.5L937.5 187.5M1112.5 237.5L1087.5 237.5L1062.5 237.5L1037.5 237.5L1012.5 237.5L987.5 237.5L962.5 237.5" stroke="rgba(255, 0, 0, 1)" stroke-width="4.17"></path>
            <path d="M956.25 237.5 a6.25 6.25 0 1 0 12.5 0 a6.25 6.25 0 1 0 -12.5 0zM931.25 187.5 a6.25 6.25 0 1 0 12.5 0 a6.25 6.25 0 1 0 -12.5 0z" fill="rgba(255, 0, 0, 1)"></path>
            <path d="M812.5 562.5L787.5 587.5M912.5 562.5L887.5 587.5L862.5 587.5L837.5 587.5M1012.5 562.5L987.5 587.5L962.5 587.5M1062.5 562.5L1037.5 587.5M1112.5 537.5L1087.5 537.5L1062.5 562.5L1037.5 562.5L1012.5 562.5L987.5 562.5L962.5 562.5L937.5 562.5L912.5 562.5L887.5 562.5L862.5 562.5L837.5 562.5L812.5 562.5L787.5 562.5L762.5 562.5L737.5 587.5" stroke="rgba(255, 0, 0, 1)" stroke-width="4.17"></path>
            <path d="M731.25 587.5 a6.25 6.25 0 1 0 12.5 0 a6.25 6.25 0 1 0 -12.5 0zM781.25 587.5 a6.25 6.25 0 1 0 12.5 0 a6.25 6.25 0 1 0 -12.5 0zM831.25 587.5 a6.25 6.25 0 1 0 12.5 0 a6.25 6.25 0 1 0 -12.5 0zM956.25 587.5 a6.25 6.25 0 1 0 12.5 0 a6.25 6.25 0 1 0 -12.5 0zM1031.25 587.5 a6.25 6.25 0 1 0 12.5 0 a6.25 6.25 0 1 0 -12.5 0z" fill="rgba(255, 0, 0, 1)"></path>
            <path d="M1112.5 212.5L1087.5 212.5" stroke="rgba(255, 217, 29, 1)" stroke-width="4.17"></path>
            <path d="M1081.25 212.5 a6.25 6.25 0 1 0 12.5 0 a6.25 6.25 0 1 0 -12.5 0z" fill="rgba(255, 217, 29, 1)"></path>
        </g>
    </g>
    <defs>
        <mask id="SvgjsMask1372">
            <rect width="1080" height="768" fill="#ffffff"></rect>
        </mask>
        <mask id="SvgjsMask1373">
            <rect width="1080" height="768" fill="white"></rect>
            <path d="M959.37 387.5 a3.13 3.13 0 1 0 6.26 0 a3.13 3.13 0 1 0 -6.26 0zM909.37 412.5 a3.13 3.13 0 1 0 6.26 0 a3.13 3.13 0 1 0 -6.26 0zM959.37 362.5 a3.13 3.13 0 1 0 6.26 0 a3.13 3.13 0 1 0 -6.26 0z" fill="black"></path>
            <path d="M1059.37 362.5 a3.13 3.13 0 1 0 6.26 0 a3.13 3.13 0 1 0 -6.26 0z" fill="black"></path>
            <path d="M809.37 437.5 a3.13 3.13 0 1 0 6.26 0 a3.13 3.13 0 1 0 -6.26 0zM809.37 412.5 a3.13 3.13 0 1 0 6.26 0 a3.13 3.13 0 1 0 -6.26 0zM809.37 462.5 a3.13 3.13 0 1 0 6.26 0 a3.13 3.13 0 1 0 -6.26 0zM759.37 487.5 a3.13 3.13 0 1 0 6.26 0 a3.13 3.13 0 1 0 -6.26 0z" fill="black"></path>
            <path d="M884.37 337.5 a3.13 3.13 0 1 0 6.26 0 a3.13 3.13 0 1 0 -6.26 0zM984.37 312.5 a3.13 3.13 0 1 0 6.26 0 a3.13 3.13 0 1 0 -6.26 0zM834.37 362.5 a3.13 3.13 0 1 0 6.26 0 a3.13 3.13 0 1 0 -6.26 0z" fill="black"></path>
            <path d="M909.37 462.5 a3.13 3.13 0 1 0 6.26 0 a3.13 3.13 0 1 0 -6.26 0zM884.37 487.5 a3.13 3.13 0 1 0 6.26 0 a3.13 3.13 0 1 0 -6.26 0z" fill="black"></path>
            <path d="M1034.37 312.5 a3.13 3.13 0 1 0 6.26 0 a3.13 3.13 0 1 0 -6.26 0z" fill="black"></path>
            <path d="M1034.37 487.5 a3.13 3.13 0 1 0 6.26 0 a3.13 3.13 0 1 0 -6.26 0z" fill="black"></path>
            <path d="M659.37 337.5 a3.13 3.13 0 1 0 6.26 0 a3.13 3.13 0 1 0 -6.26 0zM684.37 362.5 a3.13 3.13 0 1 0 6.26 0 a3.13 3.13 0 1 0 -6.26 0zM809.37 287.5 a3.13 3.13 0 1 0 6.26 0 a3.13 3.13 0 1 0 -6.26 0zM684.37 312.5 a3.13 3.13 0 1 0 6.26 0 a3.13 3.13 0 1 0 -6.26 0zM884.37 287.5 a3.13 3.13 0 1 0 6.26 0 a3.13 3.13 0 1 0 -6.26 0z" fill="black"></path>
            <path d="M659.37 537.5 a3.13 3.13 0 1 0 6.26 0 a3.13 3.13 0 1 0 -6.26 0zM634.37 512.5 a3.13 3.13 0 1 0 6.26 0 a3.13 3.13 0 1 0 -6.26 0zM659.37 487.5 a3.13 3.13 0 1 0 6.26 0 a3.13 3.13 0 1 0 -6.26 0zM634.37 462.5 a3.13 3.13 0 1 0 6.26 0 a3.13 3.13 0 1 0 -6.26 0zM984.37 487.5 a3.13 3.13 0 1 0 6.26 0 a3.13 3.13 0 1 0 -6.26 0z" fill="black"></path>
            <path d="M1084.37 262.5 a3.13 3.13 0 1 0 6.26 0 a3.13 3.13 0 1 0 -6.26 0z" fill="black"></path>
            <path d="M659.37 562.5 a3.13 3.13 0 1 0 6.26 0 a3.13 3.13 0 1 0 -6.26 0zM609.37 587.5 a3.13 3.13 0 1 0 6.26 0 a3.13 3.13 0 1 0 -6.26 0z" fill="black"></path>
            <path d="M959.37 237.5 a3.13 3.13 0 1 0 6.26 0 a3.13 3.13 0 1 0 -6.26 0zM934.37 187.5 a3.13 3.13 0 1 0 6.26 0 a3.13 3.13 0 1 0 -6.26 0z" fill="black"></path>
            <path d="M734.37 587.5 a3.13 3.13 0 1 0 6.26 0 a3.13 3.13 0 1 0 -6.26 0zM784.37 587.5 a3.13 3.13 0 1 0 6.26 0 a3.13 3.13 0 1 0 -6.26 0zM834.37 587.5 a3.13 3.13 0 1 0 6.26 0 a3.13 3.13 0 1 0 -6.26 0zM959.37 587.5 a3.13 3.13 0 1 0 6.26 0 a3.13 3.13 0 1 0 -6.26 0zM1034.37 587.5 a3.13 3.13 0 1 0 6.26 0 a3.13 3.13 0 1 0 -6.26 0z" fill="black"></path>
            <path d="M1084.37 212.5 a3.13 3.13 0 1 0 6.26 0 a3.13 3.13 0 1 0 -6.26 0z" fill="black"></path>
        </mask>
    </defs>
</svg>